<?xml version="1.0" standalone="no"?>
<!DOCTYPE svg PUBLIC "-//W3C//DTD SVG 20010904//EN"
 "http://www.w3.org/TR/2001/REC-SVG-20010904/DTD/svg10.dtd">
<svg version="1.0" xmlns="http://www.w3.org/2000/svg"
 width="180.000000pt" height="180.000000pt" viewBox="0 0 180.000000 180.000000"
 preserveAspectRatio="xMidYMid meet">

<g transform="translate(0.000000,180.000000) scale(0.100000,-0.100000)"
fill="#000000" stroke="none">
<path d="M775 1540 c-71 -71 -127 -132 -124 -135 3 -3 26 3 50 14 113 49 270
52 394 7 38 -14 70 -24 72 -23 1 2 -57 62 -130 135 l-132 132 -130 -130z"/>
<path d="M300 1065 l-165 -165 388 -388 387 -387 167 168 168 167 -385 385
c-212 212 -387 385 -390 385 -3 0 -79 -74 -170 -165z"/>
<path d="M910 1033 l0 -133 130 0 c72 0 130 2 130 4 0 3 -21 15 -46 28 -62 30
-144 111 -182 178 l-32 55 0 -132z"/>
<path d="M1415 1143 c55 -135 68 -250 40 -365 -9 -40 -24 -86 -32 -101 -8 -16
-13 -30 -11 -32 2 -2 63 55 136 127 l132 131 -127 129 c-122 123 -153 148
-138 111z"/>
</g>
</svg>

</svg>
