<?xml version="1.0" encoding="UTF-8"?>
<svg xmlns="http://www.w3.org/2000/svg" xmlns:xlink="http://www.w3.org/1999/xlink" width="215px" height="50px" viewBox="0 0 215 50" version="1.1">
<g id="surface1">
<path style=" stroke:none;fill-rule:nonzero;fill:rgb(0%,46.666667%,70.980392%);fill-opacity:1;" d="M 25.71875 6.3125 L 19.492188 0.0703125 C 19.390625 -0.0273438 19.230469 -0.0234375 19.136719 0.078125 L 12.910156 6.292969 C 12.714844 6.5 12.953125 6.820312 13.207031 6.695312 C 17.234375 4.6875 21.398438 4.78125 25.492188 6.65625 C 25.707031 6.753906 25.890625 6.476562 25.71875 6.3125 Z M 25.71875 6.3125 "/>
<path style=" stroke:none;fill-rule:nonzero;fill:rgb(0%,46.666667%,70.980392%);fill-opacity:1;" d="M 31.9375 25.289062 L 38.179688 19.058594 C 38.273438 18.957031 38.269531 18.796875 38.171875 18.703125 L 31.957031 12.472656 C 31.75 12.277344 31.433594 12.515625 31.558594 12.769531 C 33.5625 16.796875 33.46875 20.964844 31.59375 25.058594 C 31.496094 25.273438 31.777344 25.460938 31.9375 25.289062 Z M 31.9375 25.289062 "/>
<path style=" stroke:none;fill-rule:nonzero;fill:rgb(0%,46.666667%,70.980392%);fill-opacity:1;" d="M 19.5625 12.394531 C 19.4375 12.085938 19.1875 12.101562 19.1875 12.394531 L 19.1875 18.433594 C 19.1875 18.550781 19.179688 18.898438 19.667969 18.898438 L 25.609375 18.898438 C 25.929688 18.851562 25.910156 18.617188 25.578125 18.507812 C 24.609375 18.195312 21.113281 16.257812 19.5625 12.390625 Z M 19.5625 12.394531 "/>
<path style=" stroke:none;fill-rule:nonzero;fill:rgb(0%,46.666667%,70.980392%);fill-opacity:1;" d="M 0.246094 18.90625 L 8.554688 10.59375 L 27.640625 29.6875 L 19.332031 38 Z M 0.246094 18.90625 "/>
<path style=" stroke:none;fill-rule:nonzero;fill:rgb(6.666667%,18.823529%,29.019608%);fill-opacity:1;" d="M 52.265625 31.84375 L 52.265625 5.285156 L 75.03125 5.285156 L 75.03125 10.945312 L 58.503906 10.945312 L 58.503906 15.335938 L 74.179688 15.335938 L 74.179688 20.996094 L 58.503906 20.996094 L 58.503906 26.179688 L 75.257812 26.179688 L 75.257812 31.839844 L 52.265625 31.839844 Z M 52.265625 31.84375 "/>
<path style=" stroke:none;fill-rule:nonzero;fill:rgb(6.666667%,18.823529%,29.019608%);fill-opacity:1;" d="M 112.230469 31.84375 L 112.230469 5.285156 L 118.300781 5.285156 L 118.300781 31.84375 Z M 112.230469 31.84375 "/>
<path style=" stroke:none;fill-rule:nonzero;fill:rgb(6.666667%,18.823529%,29.019608%);fill-opacity:1;" d="M 140.707031 11.0625 L 140.707031 31.84375 L 134.636719 31.84375 L 134.636719 11.0625 L 125.097656 11.0625 L 125.097656 5.285156 L 150.261719 5.285156 L 150.261719 11.0625 L 140.703125 11.0625 Z M 140.707031 11.0625 "/>
<path style=" stroke:none;fill-rule:nonzero;fill:rgb(6.666667%,18.823529%,29.019608%);fill-opacity:1;" d="M 183.925781 21.972656 C 183.925781 23.175781 183.640625 32.894531 168.644531 32.894531 C 162.875 32.894531 157.359375 31.269531 156.710938 30.996094 L 156.710938 24.695312 C 168.519531 30.5 177.835938 25.878906 177.835938 22.820312 L 177.835938 19.628906 C 176.722656 20.597656 173.421875 22.972656 168.152344 22.972656 C 164.679688 22.972656 156.710938 22.25 156.710938 11.992188 L 156.710938 5.617188 L 162.816406 5.617188 L 162.816406 11.152344 C 162.816406 17.183594 168.035156 17.304688 169.179688 17.296875 C 174.300781 17.265625 177.832031 13.03125 177.832031 12.347656 L 177.832031 5.617188 L 183.925781 5.617188 Z M 183.925781 21.972656 "/>
<path style=" stroke:none;fill-rule:nonzero;fill:rgb(6.666667%,18.823529%,29.019608%);fill-opacity:1;" d="M 212.925781 12.492188 C 210.1875 10.992188 202.597656 8.691406 199.023438 10.050781 C 198.765625 10.152344 198.027344 10.515625 197.820312 11.109375 C 197.535156 11.921875 197.761719 13.121094 198.960938 13.53125 C 203.597656 15.101562 209.335938 15.328125 212.953125 19.089844 C 216.027344 22.28125 215.425781 29.480469 209.046875 31.398438 C 204.148438 32.867188 196.984375 32.636719 191.140625 30.03125 L 191.140625 23.6875 C 194.375 25.796875 198.664062 26.746094 202.398438 26.820312 C 204.78125 26.867188 209.019531 26.441406 208.546875 24.105469 C 208.449219 23.636719 208.152344 23.21875 207.753906 22.957031 C 204.152344 20.554688 192.003906 21.050781 191.066406 13.074219 C 191.007812 12.574219 191.007812 11.921875 191.097656 11.300781 C 192.417969 2.261719 206.246094 3.832031 212.917969 6.34375 L 212.917969 12.492188 Z M 212.925781 12.492188 "/>
<path style=" stroke:none;fill-rule:nonzero;fill:rgb(6.666667%,18.823529%,29.019608%);fill-opacity:1;" d="M 83.78125 31.84375 L 83.78125 5.285156 L 89.851562 5.285156 L 89.851562 26.023438 L 106.265625 26.023438 L 106.265625 31.839844 L 83.78125 31.839844 Z M 83.78125 31.84375 "/>
<path style=" stroke:none;fill-rule:nonzero;fill:rgb(0%,46.666667%,70.980392%);fill-opacity:1;" d="M 151.960938 44.921875 C 151.960938 46.519531 151.503906 47.742188 150.597656 48.59375 C 149.691406 49.445312 148.375 49.867188 146.660156 49.867188 L 143.914062 49.867188 L 143.914062 40.164062 L 146.957031 40.164062 C 148.539062 40.164062 149.769531 40.582031 150.644531 41.417969 C 151.519531 42.257812 151.960938 43.421875 151.960938 44.921875 Z M 149.824219 44.972656 C 149.824219 42.890625 148.902344 41.847656 147.066406 41.847656 L 145.96875 41.847656 L 145.96875 48.164062 L 146.851562 48.164062 C 148.832031 48.164062 149.820312 47.101562 149.820312 44.972656 Z M 149.824219 44.972656 "/>
<path style=" stroke:none;fill-rule:nonzero;fill:rgb(0%,46.666667%,70.980392%);fill-opacity:1;" d="M 157.03125 49.863281 L 157.03125 40.160156 L 159.085938 40.160156 L 159.085938 49.863281 Z M 157.03125 49.863281 "/>
<path style=" stroke:none;fill-rule:nonzero;fill:rgb(0%,46.666667%,70.980392%);fill-opacity:1;" d="M 168.230469 44.417969 L 172.078125 44.417969 L 172.078125 49.449219 C 171.453125 49.652344 170.863281 49.796875 170.3125 49.878906 C 169.765625 49.960938 169.203125 50.003906 168.625 50.003906 C 167.160156 50.003906 166.042969 49.574219 165.273438 48.714844 C 164.503906 47.855469 164.117188 46.621094 164.117188 45.007812 C 164.117188 43.394531 164.5625 42.222656 165.460938 41.34375 C 166.359375 40.46875 167.597656 40.03125 169.1875 40.03125 C 170.183594 40.03125 171.144531 40.226562 172.066406 40.628906 L 171.382812 42.273438 C 170.675781 41.921875 169.941406 41.746094 169.175781 41.746094 C 168.285156 41.746094 167.578125 42.042969 167.039062 42.640625 C 166.503906 43.238281 166.234375 44.042969 166.234375 45.046875 C 166.234375 46.054688 166.449219 46.90625 166.878906 47.460938 C 167.308594 48.015625 167.9375 48.292969 168.761719 48.292969 C 169.191406 48.292969 169.625 48.25 170.070312 48.160156 L 170.070312 46.136719 L 168.230469 46.136719 Z M 168.230469 44.417969 "/>
<path style=" stroke:none;fill-rule:nonzero;fill:rgb(0%,46.666667%,70.980392%);fill-opacity:1;" d="M 177.097656 49.839844 L 177.097656 40.136719 L 179.148438 40.136719 L 179.148438 49.839844 Z M 177.097656 49.839844 "/>
<path style=" stroke:none;fill-rule:nonzero;fill:rgb(0%,46.666667%,70.980392%);fill-opacity:1;" d="M 188.835938 49.855469 L 186.78125 49.855469 L 186.78125 41.867188 L 184.148438 41.867188 L 184.148438 40.15625 L 191.472656 40.15625 L 191.472656 41.867188 L 188.835938 41.867188 Z M 188.835938 49.855469 "/>
<path style=" stroke:none;fill-rule:nonzero;fill:rgb(0%,46.666667%,70.980392%);fill-opacity:1;" d="M 200.789062 49.863281 L 200.082031 47.554688 L 196.546875 47.554688 L 195.839844 49.863281 L 193.625 49.863281 L 197.042969 40.121094 L 199.558594 40.121094 L 202.996094 49.863281 L 200.78125 49.863281 Z M 199.59375 45.828125 C 198.945312 43.734375 198.578125 42.554688 198.496094 42.277344 C 198.414062 42.003906 198.355469 41.789062 198.320312 41.628906 C 198.175781 42.195312 197.757812 43.59375 197.066406 45.828125 Z M 199.59375 45.828125 "/>
<path style=" stroke:none;fill-rule:nonzero;fill:rgb(0%,46.666667%,70.980392%);fill-opacity:1;" d="M 208.089844 49.863281 L 208.089844 40.160156 L 210.144531 40.160156 L 210.144531 48.160156 L 214.074219 48.160156 L 214.074219 49.859375 L 208.085938 49.859375 Z M 208.089844 49.863281 "/>
</g>
</svg>
