<?xml version="1.0" encoding="utf-8"?><svg xmlns="http://www.w3.org/2000/svg" width="215.148" height="50.127" viewBox="0 0 215.148 50.127">
  <g id="Groupe_1281" data-name="Groupe 1281" transform="translate(0 0)">
    <g id="Groupe_1229" data-name="Groupe 1229" transform="translate(0)">
      <path id="Tracé_288" data-name="Tracé 288" d="M70.462,56.207l-6.328-6.341a.257.257,0,0,0-.363.009L57.444,56.19a.255.255,0,0,0,.3.4,13.913,13.913,0,0,1,12.486-.038A.213.213,0,0,0,70.462,56.207Z" transform="translate(-44.579 -49.795)" fill="#ec3632"/>
      <path id="Tracé_289" data-name="Tracé 289" d="M101.287,91.728l6.341-6.327a.257.257,0,0,0-.009-.363L101.3,78.71a.255.255,0,0,0-.4.3,13.913,13.913,0,0,1,.038,12.486A.213.213,0,0,0,101.287,91.728Z" transform="translate(-69.084 -66.043)" fill="#ec3632"/>
      <path id="Tracé_290" data-name="Tracé 290" d="M72.537,78.332c-.127-.315-.379-.295-.379,0V84.47c0,.117-.009.472.491.472h6.035c.33-.047.306-.289-.032-.4A11.646,11.646,0,0,1,72.537,78.332Z" transform="translate(-52.909 -65.743)" fill="#ec3632"/>
      <rect id="Rectangle_661" data-name="Rectangle 661" width="11.939" height="27.426" transform="matrix(0.707, -0.707, 0.707, 0.707, 0, 19.201)" fill="#ec3632"/>
      <path id="Tracé_291" data-name="Tracé 291" d="M149.122,89.059V62.082H172.25v5.752H155.456v4.457h15.929v5.753H155.456v5.262h17.026v5.752Z" transform="translate(-97.048 -56.717)" fill="#002d4e"/>
      <path id="Tracé_292" data-name="Tracé 292" d="M288.657,89.059V62.082h6.168V89.059Z" transform="translate(-176.418 -56.717)" fill="#002d4e"/>
      <path id="Tracé_293" data-name="Tracé 293" d="M334.457,67.952V89.059h-6.169V67.952H318.6v-5.87h25.572v5.87Z" transform="translate(-193.635 -56.717)" fill="#002d4e"/>
      <path id="Tracé_294" data-name="Tracé 294" d="M419.807,79.471c0,1.224-.287,11.093-15.529,11.093a41.9,41.9,0,0,1-12.121-1.924v-6.4c11.994,5.9,21.46,1.2,21.46-1.9V77.1a15.063,15.063,0,0,1-9.837,3.393c-3.528,0-11.623-.735-11.623-11.15V62.861h6.2V68.48c0,6.127,5.3,6.247,6.468,6.24,5.2-.031,8.79-4.33,8.79-5.026V62.861h6.19Z" transform="translate(-236.055 -57.156)" fill="#002d4e"/>
      <path id="Tracé_295" data-name="Tracé 295" d="M494.258,68.244c-2.781-1.525-10.494-3.86-14.124-2.482a2.18,2.18,0,0,0-1.222,1.075,1.881,1.881,0,0,0,1.164,2.458c4.711,1.6,10.542,1.827,14.216,5.644,3.122,3.244,2.511,10.556-3.97,12.5a28.075,28.075,0,0,1-18.194-1.387v-6.44a22.554,22.554,0,0,0,11.439,3.181c2.419.049,6.726-.386,6.245-2.753a1.872,1.872,0,0,0-.8-1.168c-3.658-2.44-16.005-1.938-16.957-10.04a7.247,7.247,0,0,1,.032-1.8c1.341-9.183,15.394-7.59,22.173-5.034Z" transform="translate(-281.041 -55.553)" fill="#002d4e"/>
      <g id="Groupe_1228" data-name="Groupe 1228" transform="translate(83.623 5.365)">
        <path id="Tracé_296" data-name="Tracé 296" d="M222.449,89.059V62.082h6.168V83.149h16.677v5.91Z" transform="translate(-222.449 -62.082)" fill="#002d4e"/>
      </g>
    </g>
    <g id="Groupe_1231" data-name="Groupe 1231" transform="translate(127.944 39.998)">
      <g id="Groupe_1230" data-name="Groupe 1230" transform="translate(0 0)">
        <path id="Tracé_297" data-name="Tracé 297" d="M327.671,153.107v-9.853h2.089v9.853Z" transform="translate(-327.671 -143.113)" fill="#ec3632"/>
        <path id="Tracé_298" data-name="Tracé 298" d="M352.876,153.107h-2.655l-4.287-7.454h-.06q.128,1.975.128,2.817v4.637h-1.867v-9.853h2.635l4.28,7.38h.047q-.1-1.921-.1-2.716v-4.664h1.88Z" transform="translate(-336.946 -143.113)" fill="#ec3632"/>
        <path id="Tracé_299" data-name="Tracé 299" d="M384.021,148.086a4.851,4.851,0,0,1-1.385,3.727,5.646,5.646,0,0,1-4,1.294h-2.79v-9.853h3.094a5.21,5.21,0,0,1,3.747,1.274A4.685,4.685,0,0,1,384.021,148.086Zm-2.17.054q0-3.174-2.8-3.174h-1.112v6.416h.9Q381.851,151.382,381.851,148.14Z" transform="translate(-354.81 -143.113)" fill="#ec3632"/>
        <path id="Tracé_300" data-name="Tracé 300" d="M413.07,143.254v6.376a3.673,3.673,0,0,1-.489,1.914,3.181,3.181,0,0,1-1.412,1.261,5.049,5.049,0,0,1-2.184.438,4.18,4.18,0,0,1-2.952-.974,3.455,3.455,0,0,1-1.052-2.665v-6.349h2.083v6.032a2.526,2.526,0,0,0,.458,1.671,1.9,1.9,0,0,0,1.516.532,1.863,1.863,0,0,0,1.486-.536,2.539,2.539,0,0,0,.462-1.681v-6.018Z" transform="translate(-371.224 -143.113)" fill="#ec3632"/>
        <path id="Tracé_301" data-name="Tracé 301" d="M440.209,150.188a2.548,2.548,0,0,1-.961,2.1,4.171,4.171,0,0,1-2.672.768,6.279,6.279,0,0,1-2.79-.593v-1.941a11.439,11.439,0,0,0,1.688.627,4.993,4.993,0,0,0,1.264.182,1.8,1.8,0,0,0,1.055-.263.9.9,0,0,0,.368-.782.865.865,0,0,0-.162-.515,1.815,1.815,0,0,0-.475-.435,12.3,12.3,0,0,0-1.277-.667,6.039,6.039,0,0,1-1.355-.815,3.057,3.057,0,0,1-.721-.91,2.6,2.6,0,0,1-.269-1.213,2.548,2.548,0,0,1,.886-2.056,3.683,3.683,0,0,1,2.45-.748,5.784,5.784,0,0,1,1.466.182,10.1,10.1,0,0,1,1.459.512l-.674,1.624a9.939,9.939,0,0,0-1.3-.452,4.208,4.208,0,0,0-1.014-.128,1.342,1.342,0,0,0-.91.276.911.911,0,0,0-.317.721.9.9,0,0,0,.128.482,1.405,1.405,0,0,0,.408.4,12.7,12.7,0,0,0,1.324.691,5.266,5.266,0,0,1,1.894,1.324A2.584,2.584,0,0,1,440.209,150.188Z" transform="translate(-387.451 -142.93)" fill="#ec3632"/>
        <path id="Tracé_302" data-name="Tracé 302" d="M462.094,153.107H460v-8.114h-2.675v-1.739h7.441v1.739h-2.676Z" transform="translate(-400.714 -143.113)" fill="#ec3632"/>
        <path id="Tracé_303" data-name="Tracé 303" d="M486.142,149.327v3.781h-2.089v-9.853h2.871a4.914,4.914,0,0,1,2.972.731,2.916,2.916,0,0,1,.486,3.767,3.165,3.165,0,0,1-1.355,1.061q2.224,3.323,2.9,4.293h-2.318l-2.352-3.781Zm0-1.7h.674a2.579,2.579,0,0,0,1.462-.33,1.178,1.178,0,0,0,.472-1.038,1.078,1.078,0,0,0-.482-1,2.923,2.923,0,0,0-1.493-.3h-.634Z" transform="translate(-415.768 -143.113)" fill="#ec3632"/>
        <path id="Tracé_304" data-name="Tracé 304" d="M511.963,147.311l2.055-4.057h2.251L513,149.272v3.835h-2.076V149.34l-3.269-6.086h2.264Z" transform="translate(-429.065 -143.113)" fill="#ec3632"/>
      </g>
    </g>
  </g>
</svg>
188 46.621094 164.117188 45.007812 C 164.117188 43.394531 164.5625 42.222656 165.460938 41.34375 C 166.359375 40.46875 167.597656 40.03125 169.1875 40.03125 C 170.183594 40.03125 171.144531 40.226562 172.066406 40.628906 L 171.382812 42.273438 C 170.675781 41.921875 169.941406 41.746094 169.175781 41.746094 C 168.285156 41.746094 167.578125 42.042969 167.039062 42.640625 C 166.503906 43.238281 166.234375 44.042969 166.234375 45.046875 C 166.234375 46.054688 166.449219 46.90625 166.878906 47.460938 C 167.308594 48.015625 167.9375 48.292969 168.761719 48.292969 C 169.191406 48.292969 169.625 48.25 170.070312 48.160156 L 170.070312 46.136719 L 168.230469 46.136719 Z M 168.230469 44.417969 "/>
<path style=" stroke:none;fill-rule:nonzero;fill:rgb(0%,46.666667%,70.980392%);fill-opacity:1;" d="M 177.097656 49.839844 L 177.097656 40.136719 L 179.148438 40.136719 L 179.148438 49.839844 Z M 177.097656 49.839844 "/>
<path style=" stroke:none;fill-rule:nonzero;fill:rgb(0%,46.666667%,70.980392%);fill-opacity:1;" d="M 188.835938 49.855469 L 186.78125 49.855469 L 186.78125 41.867188 L 184.148438 41.867188 L 184.148438 40.15625 L 191.472656 40.15625 L 191.472656 41.867188 L 188.835938 41.867188 Z M 188.835938 49.855469 "/>
<path style=" stroke:none;fill-rule:nonzero;fill:rgb(0%,46.666667%,70.980392%);fill-opacity:1;" d="M 200.789062 49.863281 L 200.082031 47.554688 L 196.546875 47.554688 L 195.839844 49.863281 L 193.625 49.863281 L 197.042969 40.121094 L 199.558594 40.121094 L 202.996094 49.863281 L 200.78125 49.863281 Z M 199.59375 45.828125 C 198.945312 43.734375 198.578125 42.554688 198.496094 42.277344 C 198.414062 42.003906 198.355469 41.789062 198.320312 41.628906 C 198.175781 42.195312 197.757812 43.59375 197.066406 45.828125 Z M 199.59375 45.828125 "/>
<path style=" stroke:none;fill-rule:nonzero;fill:rgb(0%,46.666667%,70.980392%);fill-opacity:1;" d="M 208.089844 49.863281 L 208.089844 40.160156 L 210.144531 40.160156 L 210.144531 48.160156 L 214.074219 48.160156 L 214.074219 49.859375 L 208.085938 49.859375 Z M 208.089844 49.863281 "/>
</g>
</svg>
