<?xml version="1.0" standalone="no"?>
<!DOCTYPE svg PUBLIC "-//W3C//DTD SVG 20010904//EN"
 "http://www.w3.org/TR/2001/REC-SVG-20010904/DTD/svg10.dtd">
<svg version="1.0" xmlns="http://www.w3.org/2000/svg"
 width="512.000000pt" height="512.000000pt" viewBox="0 0 512.000000 512.000000"
 preserveAspectRatio="xMidYMid meet">

<g transform="translate(0.000000,512.000000) scale(0.100000,-0.100000)"
fill="#000000" stroke="none">
<path d="M2152 4618 c-222 -222 -408 -411 -414 -422 -7 -14 -6 -22 6 -34 13
-14 23 -12 96 22 108 49 262 100 385 126 76 17 148 23 295 27 170 4 212 2 325
-17 143 -24 315 -73 443 -126 93 -39 112 -41 112 -16 0 17 -817 842 -835 842
-5 0 -191 -181 -413 -402z"/>
<path d="M637 3112 c-290 -290 -527 -532 -527 -537 0 -6 554 -564 1230 -1240
l1230 -1230 537 538 538 537 -1230 1230 c-676 676 -1234 1230 -1240 1230 -6 0
-247 -237 -538 -528z"/>
<path d="M2556 3388 c-7 -67 -8 -745 0 -775 3 -12 13 -25 22 -30 20 -9 644
-13 752 -4 91 7 98 24 25 53 -27 11 -84 40 -126 65 -267 159 -491 405 -609
671 -18 39 -38 72 -45 72 -7 0 -15 -21 -19 -52z"/>
<path d="M4157 3395 c-4 -8 8 -45 25 -82 211 -465 217 -955 16 -1446 -38 -94
-43 -127 -16 -127 15 0 838 820 838 835 0 17 -824 835 -841 835 -9 0 -19 -7
-22 -15z"/>
</g>
</svg>
