<svg id="svg" xmlns="http://www.w3.org/2000/svg" xmlns:xlink="http://www.w3.org/1999/xlink" width="400" height="400" viewBox="0, 0, 400,400"><g id="svgg"><path id="path0" d="M182.566 89.285 C 163.593 108.322,162.817 110.853,177.778 104.909 C 189.547 100.233,210.749 100.189,222.648 104.815 C 237.145 110.451,236.370 108.156,217.382 89.233 C 198.870 70.784,201.007 70.781,182.566 89.285 M126.276 145.575 C 115.491 156.383,106.667 165.887,106.667 166.695 C 106.667 168.632,198.833 260.741,200.770 260.741 C 202.704 260.741,241.481 221.908,241.481 219.971 C 241.481 218.035,149.316 125.926,147.378 125.926 C 146.557 125.926,137.061 134.768,126.276 145.575 M198.840 150.000 L 199.259 166.667 215.926 167.086 C 233.986 167.539,236.278 166.414,227.037 161.627 C 219.420 157.681,208.410 146.411,205.183 139.255 C 200.230 128.270,198.373 131.415,198.840 150.000 M260.304 134.323 C 259.859 135.043,260.928 139.615,262.680 144.483 C 267.096 156.754,267.000 178.038,262.476 189.577 C 257.055 203.405,260.662 202.174,277.764 184.360 C 286.324 175.443,293.329 167.470,293.330 166.641 C 293.335 164.287,261.213 132.853,260.304 134.323 " stroke="none" fill="#000000" fill-rule="evenodd"></path></g></svg>