<svg id="svg" xmlns="http://www.w3.org/2000/svg" xmlns:xlink="http://www.w3.org/1999/xlink" width="400" height="400" viewBox="0, 0, 400,400"><g id="svgg"><path id="path0" d="M182.566 89.285 C 163.593 108.322,162.817 110.853,177.778 104.909 C 189.547 100.233,210.749 100.189,222.648 104.815 C 237.145 110.451,236.370 108.156,217.382 89.233 C 198.870 70.784,201.007 70.781,182.566 89.285 M126.276 145.575 C 115.491 156.383,106.667 165.887,106.667 166.695 C 106.667 168.632,198.833 260.741,200.770 260.741 C 202.704 260.741,241.481 221.908,241.481 219.971 C 241.481 218.035,149.316 125.926,147.378 125.926 C 146.557 125.926,137.061 134.768,126.276 145.575 M198.840 150.000 L 199.259 166.667 215.926 167.086 C 233.986 167.539,236.278 166.414,227.037 161.627 C 219.420 157.681,208.410 146.411,205.183 139.255 C 200.230 128.270,198.373 131.415,198.840 150.000 M260.304 134.323 C 259.859 135.043,260.928 139.615,262.680 144.483 C 267.096 156.754,267.000 178.038,262.476 189.577 C 257.055 203.405,260.662 202.174,277.764 184.360 C 286.324 175.443,293.329 167.470,293.330 166.641 C 293.335 164.287,261.213 132.853,260.304 134.323 " stroke="none" fill="#000000" fill-rule="evenodd"></path></g></svg>w2Muw2Muw2Muw2Muw2Muw2Muw2Muw2Muw2Muw2Muw2Muw2Muw2Muw2Muw2
Muw2Muw2Muw2Muw2Muw2Muw2Muw2Muw2Muw2Muw2Muw2Muw2Muw2Mu02Muw2Muw2Muw2Muw3Mus1
Muw2Mew2Muw2Muw1Mew2Muw2Muw2Muw2Muw2Muw2Muw2Muw2Muw2Muw2Muw2Mv///5LjHDkAAADD
dFJOUwAQo+JFDpP71juV/Nc8D5aX1TqYOZnUmv3+8dvAinRjWVRTWGJwhJ257DjMZBsKAQcWL1WG
5NMR8sJ8EgEIJlqe2pvdkkADHVus6jfr0SICBjIaBCWRLrzHLCMhDD7pSb5fAsj4BefuYAL27fWf
8EiwAhNceAEcAgFexR9S+dyIrfd3XQH0dQF+5QHLASiuUI0eAc9qKbsz+s1W6Ga2Z5yha05XfUJu
bG9/sW0n5i0EyavZBAQDRmkDIMTzaEF5P0qUFAn/XLQAAAABYktHRMQUDBvhAAAAB3RJTUUH5gob
ATAW6zFzlQAAAF50RVh0UmF3IHByb2ZpbGUgdHlwZSBpcHRjAAppcHRjCiAgICAgIDI4CjM4NDI0
OTRkMDQwNDAwMDAwMDAwMDAwZjFjMDI2ZTAwMDM1MjQ2NDcxYzAyMDAwMDAyMDAwNDAwCmCaPZ4A
AAU2SURBVHja7dr5WxRlAMBxoIBoTSEjlsUjLRMoQInELCpMjIyAwqRUJArUgtDQDrIs09Luiw67
7bKy0+77eP+xdtlddmd3Z+ZdGPZ9h/f7/XXneed9P88788wzO3l5RERERERERERERERERERERERE
REREREREREQUL7/gjDNVz0GfCouKxVklqmehS4VnB4QQ885RPQ89imrgEW1+TENwvUQ0FsQ18LBq
4GHVMN1jfqlVw2yPdA0hys5VPSudNMz1yF+YScNUDzsNMz3sNcIe56meXc41yu01hDjfMA9nDdM8
8iusGsFAIGiux9TeqAxVLSpYvGTpBcuWX3jRiotXVpfVFMc9alXPMmca0b0RuqT80tq6+obEDw2r
Vjde1lR9+STJGkM8mivCF8baK9aVXHlVxt9brr7m2tZiUzwK1wcrr9vQVuh0zMbr22/YJMpuVD3X
HFTbcdOSzi7Xw7pvbqpqUj3XHFRfcovcgQ11q1XPlYiIiIiITKhH9QS0avOtW1RPQaM6e8Vtt6ue
hDaFNQQe8bb2Tr4IxmOymAYek3X2Tv1x4uyxbcV2uREbtru/V9S1JA0Xj74d/XJDNt4xcKfqZU2z
rb2WP9bucvDoGywYkhpzy85du+9WvTAvNBw9+u6pkfuKoatUDO/24/WSpuHk0Tci7u2WGrZklxge
8N/+yKDh4BHmGN0jNW7LXiFqBu5TvTwvNOw9whyid0xq5H3FEQ9/XS82GrYeEY7A/vtlhn5gnoh4
PKh6iV5o2HlEOMTONpmxHyqNDFMz7h8PBw0bj0kO8fABmdEfeTTq4ZfrxVEjs0eUQxQUSgx/4KDw
k4eLRkaPGEfxY6vcxx96XPjIw1Ujk0eMQxzaL/Fw+kRsmJrDR1Qv1guNDB5xDvHkU92up9gzGDu4
4/BR1cv1QiPdY4pDjByrdzvH5qfFlMczqhfshUaaR4JDDG5wexzLf1YkPJ5TvWQvNFI9kjhEcO/z
zmfpeSFxcMe+hjxdy0IjxSOZQ4g1Lzr/F1Ek/OCRlYbVw8ohRl962elE64TF4xXVC/dCw+KRwiEq
Xx13eCKbsBzb0a7j/SNrjWSPVI7wHbV6ebPdqcYrLYduatfvennt9aw1kjzeGE7/8c3jS20eO99K
+Z7/7XdUrz6td6ehkfBoee/9tFZ+cMLmjroshUPsUL36tD5snZFHVn2UwhH6WPXq0/vkYM48BqxD
rP1U7i38XPU4adX4TM8vJnLm8bl1b+ipkTuPBb7QyJXH0Bf+0MiRR/PxhMYpnTVy4/HlV37RmL7H
1/Kn6I+/DQud+kb1cjXwiL8rDZ3UfW/MwONbWY+e7/ykMesedaejGie+V71QLTz6D0U1flC9TD08
Fkc1NqpepB4eY5H36KGJH1UvUROPn0aEGJ3w096YTY8jRWGNn39RvTxdPH5tDWv4bW/MnseETzVm
x6P5t9//8KdG2KPKc49ti3y6N2bHo2vMH0/mmfvT+/3h6/DAAw888MADDzzwwEOn8PDGo1H1xLXy
CP6let46eQTXN8/8xJqWvUewIl/1pDXymNsa2XrMdY3sPOa+RthD+ntcEzTy8tokPczQkPUIGKIh
52GOhoyHSRruHqbcN+Q8zNobbh7maTh5BMrN07D3MFPDzsNUjcwe5mpk8jBZI93DbI1UD9M1rB5o
JHugESnugUa0qAca8SIeaCT6+3RwIRqJ/vn3P9VTICIiIiIiIiIiIiIiIiIiIiIiIiIiIiIiIiIi
IiIiIiIiIiIiIiIiIiIiIiIiIiIiIpoD/Q/Ye/w4CaYchAAAACV0RVh0ZGF0ZTpjcmVhdGUAMjAy
Mi0xMC0yNlQyMzo0ODoyMiswMjowMEAfKN0AAAAldEVYdGRhdGU6bW9kaWZ5ADIwMjItMTAtMjZU
MjM6NDg6MjIrMDI6MDAxQpBhAAAAAElFTkSuQmCC" />
</svg>
