<?xml version="1.0" encoding="UTF-8"?><svg id="Calque_2" xmlns="http://www.w3.org/2000/svg" viewBox="0 0 499.13 116.3"><g id="LS"><path d="M59.27,14.68L44.78,.16c-.24-.22-.61-.21-.83,.02l-14.49,14.46c-.45,.48,.1,1.22,.69,.93,9.37-4.67,19.06-4.45,28.59-.09,.5,.23,.93-.42,.53-.8Z" style="fill:#0077b5;"/><path d="M73.74,58.82l14.52-14.49c.22-.24,.21-.61-.02-.83l-14.46-14.49c-.48-.45-1.22,.1-.93,.69,4.67,9.37,4.45,19.06,.09,28.59-.23,.5,.42,.93,.8,.53Z" style="fill:#0077b5;"/><path d="M44.94,28.83c-.29-.72-.87-.68-.87,0v14.05c0,.27-.02,1.08,1.12,1.08h13.82c.75-.11,.7-.66-.07-.91-2.26-.73-10.39-5.23-14-14.23Z" style="fill:#0077b5;"/><rect x="18.2" y="25.11" width="27.34" height="62.81" transform="translate(-30.63 39.09) rotate(-45)" style="fill:#0077b5;"/><g><path d="M121.04,74.07V12.29h52.97v13.17h-38.46v10.21h36.48v13.17h-36.48v12.05h38.99v13.17h-53.5Z" style="fill:#11304a;"/><path d="M260.57,74.07V12.29h14.13v61.78h-14.13Z" style="fill:#11304a;"/><path d="M326.84,25.73v48.34h-14.13V25.73h-22.2V12.29h58.56v13.44h-22.24Z" style="fill:#11304a;"/><path d="M427.4,51.11c0,2.8-.66,25.4-35.56,25.4-13.42,0-26.26-3.78-27.76-4.41v-14.66c27.47,13.5,49.15,2.75,49.15-4.36v-7.42c-2.59,2.25-10.27,7.77-22.53,7.77-8.08,0-26.62-1.68-26.62-25.54V13.07h14.2v12.87c0,14.03,12.15,14.31,14.81,14.29,11.92-.07,20.13-9.92,20.13-11.51V13.07h14.18V51.11Z" style="fill:#11304a;"/><path d="M494.88,29.06c-6.37-3.49-24.03-8.84-32.35-5.68-.6,.23-2.31,1.08-2.8,2.46-.66,1.89-.13,4.68,2.66,5.63,10.79,3.66,24.14,4.18,32.56,12.93,7.15,7.43,5.75,24.17-9.09,28.63-11.4,3.42-28.07,2.88-41.67-3.18v-14.75c7.53,4.9,17.51,7.11,26.2,7.28,5.54,.11,15.4-.88,14.3-6.31-.22-1.09-.91-2.06-1.84-2.67-8.38-5.59-36.65-4.44-38.83-22.99-.14-1.16-.14-2.68,.07-4.12,3.07-21.03,35.25-17.38,50.78-11.53v14.3Z" style="fill:#11304a;"/><path d="M194.37,74.07V12.29h14.13V60.53h38.19v13.53h-52.32Z" style="fill:#11304a;"/></g><path d="M353.02,104.49c0,3.71-1.06,6.56-3.17,8.54s-5.17,2.96-9.16,2.96h-6.39v-22.57h7.08c3.68,0,6.54,.97,8.58,2.92s3.06,4.66,3.06,8.15Zm-4.97,.12c0-4.85-2.14-7.27-6.42-7.27h-2.55v14.69h2.05c4.61,0,6.91-2.47,6.91-7.42Z" style="fill:#0077b5;"/><path d="M364.82,115.98v-22.57h4.78v22.57h-4.78Z" style="fill:#0077b5;"/><path d="M390.88,103.32h8.95v11.7c-1.45,.47-2.82,.81-4.1,1s-2.59,.29-3.93,.29c-3.41,0-6.01-1-7.8-3s-2.69-4.87-2.69-8.62,1.04-6.48,3.13-8.52,4.97-3.06,8.67-3.06c2.32,0,4.55,.46,6.7,1.39l-1.59,3.83c-1.65-.82-3.36-1.23-5.14-1.23-2.07,0-3.72,.69-4.97,2.08s-1.87,3.26-1.87,5.6,.5,4.32,1.5,5.61,2.46,1.94,4.38,1.94c1,0,2.01-.1,3.04-.31v-4.71h-4.28v-3.98Z" style="fill:#0077b5;"/><path d="M411.51,115.93v-22.57h4.78v22.57h-4.78Z" style="fill:#0077b5;"/><path d="M438.83,115.96h-4.78v-18.58h-6.13v-3.98h17.04v3.98h-6.13v18.58Z" style="fill:#0077b5;"/><path d="M466.64,115.98l-1.64-5.37h-8.23l-1.64,5.37h-5.16l7.96-22.66h5.85l8,22.66h-5.16Zm-2.78-9.38c-1.51-4.87-2.36-7.62-2.55-8.26s-.33-1.14-.41-1.51c-.34,1.32-1.31,4.57-2.92,9.77h5.88Z" style="fill:#0077b5;"/><path d="M483.63,115.98v-22.57h4.78v18.61h9.15v3.95h-13.94Z" style="fill:#0077b5;"/></g></svg>