<?xml version="1.0" encoding="UTF-8"?><svg id="Calque_2" xmlns="http://www.w3.org/2000/svg" viewBox="0 0 135.27 135.22"><g id="LS"><g><path d="M90.67,22.46L68.5,.25c-.36-.34-.93-.33-1.27,.03l-22.17,22.13c-.7,.73,.15,1.87,1.05,1.42,14.33-7.14,29.16-6.81,43.74-.13,.76,.35,1.42-.65,.82-1.23Z" style="fill:#0077b5;"/><path d="M112.81,89.99l22.21-22.17c.34-.36,.33-.93-.03-1.27l-22.13-22.17c-.73-.7-1.87,.15-1.42,1.05,7.14,14.33,6.81,29.16,.13,43.74-.35,.76,.65,1.42,1.23,.82Z" style="fill:#0077b5;"/><path d="M68.75,44.11c-.44-1.1-1.33-1.03-1.33,.01v21.49c-.01,.41-.03,1.65,1.72,1.65h21.14c1.15-.16,1.07-1.01-.11-1.39-3.46-1.11-15.89-8-21.42-21.76Z" style="fill:#0077b5;"/><rect x="27.84" y="38.41" width="41.83" height="96.09" transform="translate(-46.85 59.79) rotate(-45)" style="fill:#0077b5;"/></g></g></svg>