<?xml version="1.0" standalone="no"?>
<!DOCTYPE svg PUBLIC "-//W3C//DTD SVG 20010904//EN"
 "http://www.w3.org/TR/2001/REC-SVG-20010904/DTD/svg10.dtd">
<svg version="1.0" xmlns="http://www.w3.org/2000/svg"
 width="192.000000pt" height="192.000000pt" viewBox="0 0 192.000000 192.000000"
 preserveAspectRatio="xMidYMid meet">

<g transform="translate(0.000000,192.000000) scale(0.100000,-0.100000)"
fill="#000000" stroke="none">
<path d="M810 1695 c-85 -85 -151 -155 -146 -155 5 0 40 11 79 25 146 53 284
53 440 1 40 -13 74 -22 77 -20 2 3 -63 72 -146 154 l-149 150 -155 -155z"/>
<path d="M267 1162 c-103 -103 -187 -192 -187 -197 0 -14 872 -885 886 -885
15 0 374 365 374 381 0 12 -780 798 -860 867 l-26 21 -187 -187z"/>
<path d="M960 1128 l0 -158 153 0 152 0 -55 32 c-74 43 -178 150 -217 223
l-32 60 -1 -157z"/>
<path d="M1540 1268 c0 -4 14 -49 32 -100 28 -82 32 -106 32 -203 0 -97 -4
-121 -31 -200 -17 -49 -29 -92 -27 -95 3 -2 72 63 154 146 l150 149 -155 155
c-85 85 -155 152 -155 148z"/>
</g>
</svg>
